<svg width="24" height="24" viewBox="0 0 24 24" fill="none" xmlns="http://www.w3.org/2000/svg">
<g id="menu">
<mask id="mask0_2002_1369" style="mask-type:alpha" maskUnits="userSpaceOnUse" x="0" y="0" width="24" height="24">
<rect id="Bounding box" width="24" height="24" fill="#D9D9D9"/>
</mask>
<g mask="url(#mask0_2002_1369)">
<path id="menu_2" d="M5.77778 17.3333C5.55741 17.3333 5.37269 17.2588 5.22361 17.1097C5.07454 16.9606 5 16.7759 5 16.5556C5 16.3352 5.07454 16.1505 5.22361 16.0014C5.37269 15.8523 5.55741 15.7778 5.77778 15.7778H18.2222C18.4426 15.7778 18.6273 15.8523 18.7764 16.0014C18.9255 16.1505 19 16.3352 19 16.5556C19 16.7759 18.9255 16.9606 18.7764 17.1097C18.6273 17.2588 18.4426 17.3333 18.2222 17.3333H5.77778ZM5.77778 12.4444C5.55741 12.4444 5.37269 12.3699 5.22361 12.2208C5.07454 12.0718 5 11.887 5 11.6667C5 11.4463 5.07454 11.2616 5.22361 11.1125C5.37269 10.9634 5.55741 10.8889 5.77778 10.8889H18.2222C18.4426 10.8889 18.6273 10.9634 18.7764 11.1125C18.9255 11.2616 19 11.4463 19 11.6667C19 11.887 18.9255 12.0718 18.7764 12.2208C18.6273 12.3699 18.4426 12.4444 18.2222 12.4444H5.77778ZM5.77778 7.55556C5.55741 7.55556 5.37269 7.48102 5.22361 7.33194C5.07454 7.18287 5 6.99815 5 6.77778C5 6.55741 5.07454 6.37269 5.22361 6.22361C5.37269 6.07454 5.55741 6 5.77778 6H18.2222C18.4426 6 18.6273 6.07454 18.7764 6.22361C18.9255 6.37269 19 6.55741 19 6.77778C19 6.99815 18.9255 7.18287 18.7764 7.33194C18.6273 7.48102 18.4426 7.55556 18.2222 7.55556H5.77778Z" fill="#424242"/>
</g>
</g>
</svg>
