<svg xmlns="http://www.w3.org/2000/svg" width="32" height="32" viewBox="0 0 32 32" fill="none">
  <mask id="mask0_202_9535" style="mask-type:alpha" maskUnits="userSpaceOnUse" x="0" y="0" width="32" height="32">
    <rect width="32" height="32" fill="#D9D9D9"/>
  </mask>
  <g mask="url(#mask0_202_9535)">
    <path d="M9.42974 17.3145L12.9499 20.8347C13.1724 21.0572 13.2837 21.3404 13.2837 21.6844C13.2837 22.0283 13.1724 22.3115 12.9499 22.5341C12.7274 22.7566 12.4441 22.8679 12.1002 22.8679C11.7563 22.8679 11.473 22.7566 11.2505 22.5341L5.66682 16.9504C5.54543 16.829 5.45945 16.6975 5.40887 16.5559C5.3583 16.4143 5.33301 16.2625 5.33301 16.1007C5.33301 15.9388 5.3583 15.7871 5.40887 15.6455C5.45945 15.5039 5.54543 15.3724 5.66682 15.251L11.2505 9.6673C11.473 9.44477 11.7563 9.3335 12.1002 9.3335C12.4441 9.3335 12.7274 9.44477 12.9499 9.6673C13.1724 9.88984 13.2837 10.1731 13.2837 10.517C13.2837 10.8609 13.1724 11.1441 12.9499 11.3667L9.42974 14.8868H25.4525C25.7964 14.8868 26.0847 15.0032 26.3174 15.2358C26.55 15.4685 26.6663 15.7568 26.6663 16.1007C26.6663 16.4446 26.55 16.7329 26.3174 16.9655C26.0847 17.1982 25.7964 17.3145 25.4525 17.3145H9.42974Z" fill="#0EA5E9"/>
  </g>
</svg>