<svg xmlns="http://www.w3.org/2000/svg" width="32" height="32" viewBox="0 0 32 32" fill="none">
  <mask id="mask0_202_9537" style="mask-type:alpha" maskUnits="userSpaceOnUse" x="0" y="0" width="32" height="32">
    <rect width="32" height="32" fill="#D9D9D9"/>
  </mask>
  <g mask="url(#mask0_202_9537)">
    <path d="M22.5703 17.3145L19.0501 20.8347C18.8276 21.0572 18.7163 21.3405 18.7163 21.6844C18.7163 22.0283 18.8276 22.3115 19.0501 22.5341C19.2727 22.7566 19.5559 22.8679 19.8998 22.8679C20.2437 22.8679 20.527 22.7566 20.7495 22.5341L26.3332 16.9504C26.4546 16.829 26.5405 16.6975 26.5911 16.5559C26.6417 16.4143 26.667 16.2625 26.667 16.1007C26.667 15.9388 26.6417 15.7871 26.5911 15.6455C26.5405 15.5039 26.4546 15.3724 26.3332 15.251L20.7495 9.6673C20.527 9.44477 20.2437 9.3335 19.8998 9.3335C19.5559 9.3335 19.2727 9.44477 19.0501 9.6673C18.8276 9.88984 18.7163 10.1731 18.7163 10.517C18.7163 10.8609 18.8276 11.1441 19.0501 11.3667L22.5703 14.8868H6.5475C6.20358 14.8868 5.91529 15.0032 5.68264 15.2358C5.44999 15.4685 5.33366 15.7568 5.33366 16.1007C5.33366 16.4446 5.44999 16.7329 5.68264 16.9655C5.91529 17.1982 6.20358 17.3145 6.5475 17.3145H22.5703Z" fill="#0EA5E9"/>
  </g>
</svg>