<svg width="16" height="16" viewBox="0 0 16 16" fill="none" xmlns="http://www.w3.org/2000/svg">
<g id="003.calendar">
<path id="Vector" d="M13.0003 2.67969H3.00033C2.26395 2.67969 1.66699 3.27664 1.66699 4.01302V12.6797C1.66699 13.4161 2.26395 14.013 3.00033 14.013H13.0003C13.7367 14.013 14.3337 13.4161 14.3337 12.6797V4.01302C14.3337 3.27664 13.7367 2.67969 13.0003 2.67969Z" fill="#D6D3D1"/>
<path id="Vector_2" d="M5.65367 2.01318H5.00033C4.81623 2.01318 4.66699 2.16242 4.66699 2.34652V3.67985C4.66699 3.86395 4.81623 4.01318 5.00033 4.01318H5.65367C5.83776 4.01318 5.987 3.86395 5.987 3.67985V2.34652C5.987 2.16242 5.83776 2.01318 5.65367 2.01318Z" fill="#707070"/>
<path id="Vector_3" d="M5.8265 6.3335H4.8265C4.6424 6.3335 4.49316 6.48273 4.49316 6.66683V7.66683C4.49316 7.85092 4.6424 8.00016 4.8265 8.00016H5.8265C6.01059 8.00016 6.15983 7.85092 6.15983 7.66683V6.66683C6.15983 6.48273 6.01059 6.3335 5.8265 6.3335Z" fill="white"/>
<path id="Vector_4" d="M8.50033 6.3335H7.50033C7.31623 6.3335 7.16699 6.48273 7.16699 6.66683V7.66683C7.16699 7.85092 7.31623 8.00016 7.50033 8.00016H8.50033C8.68442 8.00016 8.83366 7.85092 8.83366 7.66683V6.66683C8.83366 6.48273 8.68442 6.3335 8.50033 6.3335Z" fill="white"/>
<path id="Vector_5" d="M11.1732 6.3335H10.1732C9.98908 6.3335 9.83984 6.48273 9.83984 6.66683V7.66683C9.83984 7.85092 9.98908 8.00016 10.1732 8.00016H11.1732C11.3573 8.00016 11.5065 7.85092 11.5065 7.66683V6.66683C11.5065 6.48273 11.3573 6.3335 11.1732 6.3335Z" fill="white"/>
<path id="Vector_6" d="M11 2.01318H10.3333C10.1492 2.01318 10 2.16242 10 2.34652V3.67985C10 3.86395 10.1492 4.01318 10.3333 4.01318H11C11.1841 4.01318 11.3333 3.86395 11.3333 3.67985V2.34652C11.3333 2.16242 11.1841 2.01318 11 2.01318Z" fill="#707070"/>
<path id="Vector_7" d="M5.8265 9.3335H4.8265C4.6424 9.3335 4.49316 9.48273 4.49316 9.66683V10.6668C4.49316 10.8509 4.6424 11.0002 4.8265 11.0002H5.8265C6.01059 11.0002 6.15983 10.8509 6.15983 10.6668V9.66683C6.15983 9.48273 6.01059 9.3335 5.8265 9.3335Z" fill="white"/>
<path id="Vector_8" d="M8.50033 9.3335H7.50033C7.31623 9.3335 7.16699 9.48273 7.16699 9.66683V10.6668C7.16699 10.8509 7.31623 11.0002 7.50033 11.0002H8.50033C8.68442 11.0002 8.83366 10.8509 8.83366 10.6668V9.66683C8.83366 9.48273 8.68442 9.3335 8.50033 9.3335Z" fill="white"/>
<path id="Vector_9" d="M11.1732 9.3335H10.1732C9.98908 9.3335 9.83984 9.48273 9.83984 9.66683V10.6668C9.83984 10.8509 9.98908 11.0002 10.1732 11.0002H11.1732C11.3573 11.0002 11.5065 10.8509 11.5065 10.6668V9.66683C11.5065 9.48273 11.3573 9.3335 11.1732 9.3335Z" fill="white"/>
</g>
</svg>
