<svg width="40" height="40" viewBox="0 0 40 40" fill="none" xmlns="http://www.w3.org/2000/svg">
<g id="049.car">
<path id="Vector" d="M6.66634 18.3335H33.333C34.2171 18.3335 35.0649 18.6847 35.69 19.3099C36.3152 19.935 36.6663 20.7828 36.6663 21.6668V30.0002C36.6663 30.4422 36.4907 30.8661 36.1782 31.1786C35.8656 31.4912 35.4417 31.6668 34.9997 31.6668H4.99967C4.55765 31.6668 4.13372 31.4912 3.82116 31.1786C3.5086 30.8661 3.33301 30.4422 3.33301 30.0002V21.6668C3.33301 20.7828 3.6842 19.935 4.30932 19.3099C4.93444 18.6847 5.78229 18.3335 6.66634 18.3335Z" fill="#5096FF"/>
<path id="Vector_2" d="M13.3337 6.6665H26.667C28.4351 6.6665 30.1308 7.36888 31.381 8.61912C32.6313 9.86936 33.3337 11.5651 33.3337 13.3332V18.3332H6.66699V13.3332C6.66699 11.5651 7.36937 9.86936 8.61961 8.61912C9.86986 7.36888 11.5655 6.6665 13.3337 6.6665Z" fill="#5096FF"/>
<path id="Vector_3" d="M13.3333 10H26.6667C27.5507 10 28.3986 10.3512 29.0237 10.9764C29.6488 11.6015 30 12.4493 30 13.3333V18.3333H10V13.3333C10 12.4493 10.3512 11.6015 10.9763 10.9764C11.6014 10.3512 12.4493 10 13.3333 10Z" fill="white"/>
<path id="Vector_4" d="M5 31.6665H11.6667V33.3332C11.6667 33.7752 11.4911 34.1991 11.1785 34.5117C10.866 34.8242 10.442 34.9998 10 34.9998H6.66667C6.22464 34.9998 5.80072 34.8242 5.48816 34.5117C5.17559 34.1991 5 33.7752 5 33.3332V31.6665Z" fill="#737A83"/>
<path id="Vector_5" d="M28.333 31.6665H34.9997V33.3332C34.9997 33.7752 34.8241 34.1991 34.5115 34.5117C34.199 34.8242 33.775 34.9998 33.333 34.9998H29.9997C29.5576 34.9998 29.1337 34.8242 28.8212 34.5117C28.5086 34.1991 28.333 33.7752 28.333 33.3332V31.6665Z" fill="#737A83"/>
<path id="Vector_6" d="M11.667 23.3335H8.33366C7.41318 23.3335 6.66699 24.0797 6.66699 25.0002C6.66699 25.9206 7.41318 26.6668 8.33366 26.6668H11.667C12.5875 26.6668 13.3337 25.9206 13.3337 25.0002C13.3337 24.0797 12.5875 23.3335 11.667 23.3335Z" fill="white"/>
<path id="Vector_7" d="M31.667 23.3335H28.3337C27.4132 23.3335 26.667 24.0797 26.667 25.0002C26.667 25.9206 27.4132 26.6668 28.3337 26.6668H31.667C32.5875 26.6668 33.3337 25.9206 33.3337 25.0002C33.3337 24.0797 32.5875 23.3335 31.667 23.3335Z" fill="white"/>
</g>
</svg>
