<svg width="24" height="24" viewBox="0 0 24 24" fill="none" xmlns="http://www.w3.org/2000/svg">
<rect width="24" height="24" rx="12" fill="#14B8A6"/>
<mask id="mask0_2017_6553" style="mask-type:alpha" maskUnits="userSpaceOnUse" x="2" y="2" width="20" height="20">
<rect x="2" y="2" width="20" height="20" fill="#D9D9D9"/>
</mask>
<g mask="url(#mask0_2017_6553)">
<path fill-rule="evenodd" clip-rule="evenodd" d="M17.9617 7C17.5882 7 17.2577 7.14176 16.9948 7.40471L10.0536 14.3459L7.35101 11.6243L7.34977 11.623C7.08681 11.3601 6.75636 11.2183 6.38283 11.2183C6.00931 11.2183 5.67885 11.3601 5.4159 11.623C5.15646 11.8825 5.01181 12.2069 5.00066 12.5748C4.98918 12.9537 5.12781 13.2903 5.39438 13.5569L9.09617 17.2587C9.3558 17.5183 9.6815 17.6634 10.0523 17.6634C10.4232 17.6634 10.7489 17.5183 11.0085 17.2587L18.9286 9.33857C19.1916 9.07562 19.3333 8.74517 19.3333 8.37164C19.3333 7.99812 19.1916 7.66766 18.9286 7.40471C18.6657 7.14176 18.3352 7 17.9617 7Z" fill="white"/>
</g>
</svg>
