<svg width="10" height="10" viewBox="0 0 10 10" fill="none" xmlns="http://www.w3.org/2000/svg">
<g id="Group 427320976">
<path id="Union" d="M1 0H9C9.55229 0 10 0.447715 10 1V6C10 6.55228 9.55229 7 9 7H5L2.5 9.5V7H1C0.447715 7 0 6.55228 0 6V1C0 0.447715 0.447715 0 1 0Z" fill="#D4D4D4"/>
<path id="Vector" d="M3.25 2.875H2.5C2.36193 2.875 2.25 2.98693 2.25 3.125V3.875C2.25 4.01307 2.36193 4.125 2.5 4.125H3.25C3.38807 4.125 3.5 4.01307 3.5 3.875V3.125C3.5 2.98693 3.38807 2.875 3.25 2.875Z" fill="white"/>
<path id="Vector_2" d="M5.375 2.875H4.625C4.48693 2.875 4.375 2.98693 4.375 3.125V3.875C4.375 4.01307 4.48693 4.125 4.625 4.125H5.375C5.51307 4.125 5.625 4.01307 5.625 3.875V3.125C5.625 2.98693 5.51307 2.875 5.375 2.875Z" fill="white"/>
<path id="Vector_3" d="M7.5 2.875H6.75C6.61193 2.875 6.5 2.98693 6.5 3.125V3.875C6.5 4.01307 6.61193 4.125 6.75 4.125H7.5C7.63807 4.125 7.75 4.01307 7.75 3.875V3.125C7.75 2.98693 7.63807 2.875 7.5 2.875Z" fill="white"/>
</g>
</svg>
