<svg width="20" height="20" viewBox="0 0 20 20" fill="none" xmlns="http://www.w3.org/2000/svg">
<rect width="20" height="20" rx="10" fill="#FEF9C3"/>
<path fill-rule="evenodd" clip-rule="evenodd" d="M13.0126 8.3669C12.7642 8.54487 12.4206 8.501 12.2249 8.26632L10.2291 5.87313C9.99586 5.59349 9.56629 5.59349 9.33308 5.87313L7.41824 8.16924C7.22253 8.40392 6.87889 8.44779 6.63049 8.26982L5.21992 7.25913C4.81078 6.96598 4.24735 7.29383 4.30004 7.79438L4.7474 12.0443H15.0269V12.0407L15.0312 12.0443L15.4786 7.79438C15.5313 7.29383 14.9678 6.96598 14.5587 7.25913L13.0126 8.3669Z" fill="#FACC15"/>
<path d="M4.79688 12.5469H15.0269V13.3824C15.0269 13.7046 14.7657 13.9658 14.4435 13.9658H5.38021C5.05804 13.9658 4.79688 13.7046 4.79688 13.3824V12.5469Z" fill="#FACC15"/>
</svg>
