<svg width="14" height="14" viewBox="0 0 14 14" fill="none" xmlns="http://www.w3.org/2000/svg">
<g id="150.crown">
<path id="Union" fill-rule="evenodd" clip-rule="evenodd" d="M10.0126 5.3669C9.76422 5.54487 9.42058 5.501 9.22487 5.26632L7.22907 2.87313C6.99586 2.59349 6.56629 2.59349 6.33308 2.87313L4.41824 5.16924C4.22253 5.40392 3.87889 5.44779 3.63049 5.26982L2.21992 4.25913C1.81078 3.96598 1.24735 4.29383 1.30004 4.79438L1.7474 9.04427H12.0269V9.04067L12.0312 9.04427L12.4786 4.79438C12.5313 4.29383 11.9678 3.96598 11.5587 4.25913L10.0126 5.3669Z" fill="#FACC15"/>
<path id="Rectangle 3029" d="M1.79688 9.54688H12.0269V10.3824C12.0269 10.7046 11.7657 10.9658 11.4435 10.9658H2.38021C2.05804 10.9658 1.79688 10.7046 1.79688 10.3824V9.54688Z" fill="#FACC15"/>
</g>
</svg>
