<svg width="24" height="24" viewBox="0 0 24 24" fill="none" xmlns="http://www.w3.org/2000/svg">
<g id="first_page">
<mask id="mask0_332_8564" style="mask-type:alpha" maskUnits="userSpaceOnUse" x="0" y="0" width="24" height="24">
<rect id="Bounding box" width="24" height="24" fill="#D9D9D9"/>
</mask>
<g mask="url(#mask0_332_8564)">
<path id="first_page_2" d="M7 18C6.71667 18 6.47917 17.9042 6.2875 17.7125C6.09583 17.5208 6 17.2833 6 17V7C6 6.71667 6.09583 6.47917 6.2875 6.2875C6.47917 6.09583 6.71667 6 7 6C7.28333 6 7.52083 6.09583 7.7125 6.2875C7.90417 6.47917 8 6.71667 8 7V17C8 17.2833 7.90417 17.5208 7.7125 17.7125C7.52083 17.9042 7.28333 18 7 18ZM13.8 12L17.7 15.9C17.8833 16.0833 17.975 16.3167 17.975 16.6C17.975 16.8833 17.8833 17.1167 17.7 17.3C17.5167 17.4833 17.2833 17.575 17 17.575C16.7167 17.575 16.4833 17.4833 16.3 17.3L11.7 12.7C11.6 12.6 11.5292 12.4917 11.4875 12.375C11.4458 12.2583 11.425 12.1333 11.425 12C11.425 11.8667 11.4458 11.7417 11.4875 11.625C11.5292 11.5083 11.6 11.4 11.7 11.3L16.3 6.7C16.4833 6.51667 16.7167 6.425 17 6.425C17.2833 6.425 17.5167 6.51667 17.7 6.7C17.8833 6.88333 17.975 7.11667 17.975 7.4C17.975 7.68333 17.8833 7.91667 17.7 8.1L13.8 12Z" fill="#A3A3A3"/>
</g>
</g>
</svg>
