<svg xmlns="http://www.w3.org/2000/svg" width="24" height="31" viewBox="0 0 24 31" fill="none">
  <path fill-rule="evenodd" clip-rule="evenodd" d="M1.06667 0C1.65577 0 2.13333 0.477563 2.13333 1.06667V21.3333L19.8248 21.3324L14.8572 16.3654C14.4407 15.9488 14.4406 15.2734 14.8572 14.8569C15.2737 14.4403 15.9491 14.4402 16.3657 14.8568L23.1542 21.6447C23.5708 22.0612 23.5708 22.7366 23.1543 23.1532L16.3664 29.9417C15.9499 30.3583 15.2745 30.3583 14.8579 29.9418C14.4413 29.5253 14.4413 28.8499 14.8578 28.4333L19.8249 23.4658L1.06672 23.4667C0.783812 23.4667 0.512488 23.3543 0.312438 23.1543C0.112388 22.9542 0 22.6829 0 22.4V1.06667C0 0.477563 0.477563 0 1.06667 0Z" fill="#D4D4D4"/>
</svg>