<svg width="24" height="24" viewBox="0 0 24 24" fill="none" xmlns="http://www.w3.org/2000/svg">
<g id="021.heart">
<path id="Vector" d="M17.0003 5.33984C17.9803 5.33984 18.9003 5.71984 19.5903 6.40984C21.0203 7.83984 21.0203 10.1598 19.5903 11.5798L18.5903 12.5798L15.5903 15.5798L12.0003 19.1698L8.41026 15.5798L4.41026 11.5798C2.98026 10.1498 2.98026 7.82984 4.41026 6.40984C5.10026 5.71984 6.02027 5.33984 7.00027 5.33984C7.98027 5.33984 8.90027 5.71984 9.59027 6.40984L10.5903 7.40984L12.0003 8.81984L13.4103 7.40984L14.4103 6.40984C15.1003 5.71984 16.0203 5.33984 17.0003 5.33984ZM17.0003 3.33984C15.5503 3.33984 14.1003 3.88984 13.0003 4.99984L12.0003 5.99984L11.0003 4.99984C9.90027 3.89984 8.45027 3.33984 7.00027 3.33984C5.55027 3.33984 4.10027 3.88984 3.00027 4.99984C0.790273 7.20984 0.790273 10.7898 3.00027 12.9998L7.00027 16.9998L12.0003 21.9998L17.0003 16.9998L20.0003 13.9998L21.0003 12.9998C23.2103 10.7898 23.2103 7.20984 21.0003 4.99984C19.9003 3.89984 18.4503 3.33984 17.0003 3.33984Z" fill="white"/>
</g>
</svg>
