<svg width="40" height="40" viewBox="0 0 40 40" fill="none" xmlns="http://www.w3.org/2000/svg">
<path d="M22.0807 25H17.9141V38.3333H22.0807V25Z" fill="#FDE047"/>
<path d="M32.5 12.5026V16.6693C32.5 17.3323 32.2366 17.9682 31.7678 18.437C31.2989 18.9059 30.663 19.1693 30 19.1693H29.1667V12.5026H32.5ZM33.3333 8.33594H25V23.3359H30C31.7681 23.3359 33.4638 22.6336 34.7141 21.3833C35.9643 20.1331 36.6667 18.4374 36.6667 16.6693V11.6693C36.6667 10.7852 36.3155 9.93737 35.6904 9.31225C35.0652 8.68713 34.2174 8.33594 33.3333 8.33594Z" fill="#FFC738"/>
<path d="M10.8359 12.5026V19.1693H10.0026C9.33956 19.1693 8.70369 18.9059 8.23485 18.437C7.76601 17.9682 7.5026 17.3323 7.5026 16.6693V12.5026H10.8359ZM15.0026 8.33594H6.66927C5.78522 8.33594 4.93737 8.68713 4.31225 9.31225C3.68712 9.93737 3.33594 10.7852 3.33594 11.6693V16.6693C3.33594 18.4374 4.03834 20.1331 5.28858 21.3833C6.53882 22.6336 8.23449 23.3359 10.0026 23.3359H15.0026V8.33594Z" fill="#FFC738"/>
<path d="M14.9991 34.1641H24.9991C25.9871 34.2895 26.8876 34.7945 27.5097 35.5722C28.1319 36.3499 28.427 37.3393 28.3324 38.3307H11.6658C11.5712 37.3393 11.8663 36.3499 12.4885 35.5722C13.1106 34.7945 14.0111 34.2895 14.9991 34.1641Z" fill="#FACC15"/>
<path d="M13.3333 3.33594H26.6667C27.5507 3.33594 28.3986 3.68718 29.0237 4.3123C29.6488 4.93742 30 5.78522 30 6.66927V20.0026C30 22.6548 28.9464 25.1984 27.0711 27.0737C25.1957 28.9491 22.6522 30.0026 20 30.0026C17.3478 30.0026 14.8043 28.9491 12.9289 27.0737C11.0536 25.1984 10 22.6548 10 20.0026V6.66927C10 5.78522 10.3512 4.93742 10.9763 4.3123C11.6014 3.68718 12.4493 3.33594 13.3333 3.33594Z" fill="#FDE047"/>
</svg>
