<svg width="40" height="40" viewBox="0 0 40 40" fill="none" xmlns="http://www.w3.org/2000/svg">
<mask id="mask0_1090_14102" style="mask-type:luminance" maskUnits="userSpaceOnUse" x="2" y="1" width="11" height="11">
<path d="M12.8439 1.67188H2.5V11.9932H12.8439V1.67188Z" fill="white"/>
</mask>
<g mask="url(#mask0_1090_14102)">
<path d="M10.3911 11.9269L10.9729 11.5845C11.2209 11.4386 11.3031 11.1201 11.1567 10.873L7.84572 5.28899C7.69924 5.04196 7.37949 4.95999 7.13152 5.10591L6.5497 5.44829C6.30173 5.59421 6.21945 5.91276 6.36593 6.15979L9.67687 11.7438C9.82335 11.9909 10.1431 12.0728 10.3911 11.9269Z" fill="#FACC15"/>
<path d="M3.18047 10.1153C2.80817 9.78759 2.58123 8.7397 2.52895 7.92426C2.23443 4.86316 4.21065 1.91003 7.3675 1.68776C8.36198 1.61028 9.37686 1.81985 10.2897 2.23901C11.1912 2.65562 12.0977 3.32246 12.5465 3.88768C13.008 4.42369 12.9251 4.9978 12.3565 5.41696C11.1478 6.28067 9.74278 6.99577 8.4117 7.82138C7.42232 8.40819 6.42911 8.99755 5.61058 9.48148C4.95779 9.84983 3.76186 10.7262 3.19067 10.1267L3.17919 10.1153H3.18047Z" fill="#FACC15"/>
</g>
<mask id="mask1_1090_14102" style="mask-type:luminance" maskUnits="userSpaceOnUse" x="27" y="1" width="11" height="11">
<path d="M37.5705 1.67188H27.2266V11.9932H37.5705V1.67188Z" fill="white"/>
</mask>
<g mask="url(#mask1_1090_14102)">
<path d="M33.5152 5.44252L32.9334 5.10015C32.6854 4.95423 32.3656 5.0362 32.2192 5.28323L28.9082 10.8673C28.7617 11.1143 28.844 11.4328 29.092 11.5788L29.6738 11.9211C29.9218 12.0671 30.2415 11.9851 30.388 11.7381L33.699 6.15403C33.8454 5.90699 33.7631 5.58844 33.5152 5.44252Z" fill="#FACC15"/>
<path d="M36.8894 10.1166C37.2617 9.78886 37.4886 8.74097 37.5409 7.92553C37.8367 4.86444 35.8605 1.9113 32.7036 1.68776C31.7091 1.61028 30.6943 1.81985 29.7814 2.23901C28.88 2.65562 27.9734 3.32246 27.5247 3.88768C27.0631 4.42369 27.146 4.9978 27.7146 5.41696C28.9233 6.28067 30.3283 6.99577 31.6594 7.82138C32.6488 8.40819 33.642 8.99755 34.4605 9.48148C35.1133 9.84983 36.3093 10.7262 36.8804 10.1267L36.8919 10.1153L36.8894 10.1166Z" fill="#FACC15"/>
</g>
<path fill-rule="evenodd" clip-rule="evenodd" d="M19.9127 5.89844C10.5416 5.89844 2.94531 13.4661 2.94531 22.8018C2.94531 32.1375 10.5416 39.7051 19.9127 39.7051C29.2838 39.7051 36.8801 32.1375 36.8801 22.8018C36.8801 13.4661 29.2838 5.89844 19.9127 5.89844Z" fill="#FFC738"/>
<path fill-rule="evenodd" clip-rule="evenodd" d="M19.9798 8.20312C11.8442 8.20312 5.25 14.7737 5.25 22.8773C5.25 30.981 11.8455 37.5515 19.9798 37.5515C28.1142 37.5515 34.7097 30.981 34.7097 22.8773C34.7097 14.7737 28.1142 8.20312 19.9798 8.20312Z" fill="#FDE047"/>
<path fill-rule="evenodd" clip-rule="evenodd" d="M20.0614 9.35938C12.7265 9.35938 6.78125 15.2821 6.78125 22.5894C6.78125 29.8967 12.7265 35.8194 20.0614 35.8194C27.3964 35.8194 33.3416 29.8967 33.3416 22.5894C33.3416 15.2821 27.3964 9.35938 20.0614 9.35938Z" fill="white"/>
<path d="M19.9005 9.91764C22.703 9.87799 25.4401 10.7661 27.6854 12.4437C29.9308 14.1212 31.5584 16.4942 32.315 19.1929C33.0716 21.8917 32.9146 24.7649 31.8685 27.3652C30.8225 29.9655 28.946 32.147 26.5312 33.57C24.1165 34.993 21.299 35.5776 18.5174 35.2329C15.7359 34.8882 13.1464 33.6335 11.152 31.6641C9.15771 29.6947 7.8705 27.1211 7.49082 24.3441C7.11114 21.5671 7.6603 18.7425 9.05279 16.3101L20.0802 22.6229L19.9005 9.91764Z" fill="#FCFAEC"/>
<path fill-rule="evenodd" clip-rule="evenodd" d="M19.9922 20.6641C18.8871 20.6641 17.9922 21.559 17.9922 22.6641C17.9922 23.7691 18.8871 24.6641 19.9922 24.6641C21.0972 24.6641 21.9922 23.7691 21.9922 22.6641C21.9922 21.559 21.0972 20.6641 19.9922 20.6641Z" fill="#FACC15"/>
<path d="M20.5495 11.3789C20.5495 11.092 20.3163 10.8594 20.0286 10.8594C19.741 10.8594 19.5078 11.092 19.5078 11.3789V20.8643C19.5078 21.1512 19.741 21.3838 20.0286 21.3838C20.3163 21.3838 20.5495 21.1512 20.5495 20.8643V11.3789Z" fill="#FACC15"/>
<path d="M19.3728 22.6371C19.6208 22.783 19.9404 22.7013 20.0867 22.4546C20.233 22.2078 20.1505 21.8895 19.9026 21.7436L12.3851 17.3198C12.1371 17.1739 11.8175 17.2556 11.6712 17.5024C11.5249 17.7491 11.6073 18.0674 11.8553 18.2133L19.3728 22.6371Z" fill="#FACC15"/>
</svg>
