<svg width="24" height="24" viewBox="0 0 24 24" fill="none" xmlns="http://www.w3.org/2000/svg">
<g id="keyboard_arrow_left">
<mask id="mask0_332_8566" style="mask-type:alpha" maskUnits="userSpaceOnUse" x="0" y="0" width="24" height="24">
<rect id="Bounding box" width="24" height="24" fill="#D9D9D9"/>
</mask>
<g mask="url(#mask0_332_8566)">
<path id="keyboard_arrow_left_2" d="M10.375 11.575L14.275 15.475C14.4583 15.6583 14.55 15.8917 14.55 16.175C14.55 16.4583 14.4583 16.6917 14.275 16.875C14.0917 17.0583 13.8583 17.15 13.575 17.15C13.2917 17.15 13.0583 17.0583 12.875 16.875L8.275 12.275C8.175 12.175 8.10417 12.0667 8.0625 11.95C8.02083 11.8333 8 11.7083 8 11.575C8 11.4417 8.02083 11.3167 8.0625 11.2C8.10417 11.0833 8.175 10.975 8.275 10.875L12.875 6.275C13.0583 6.09167 13.2917 6 13.575 6C13.8583 6 14.0917 6.09167 14.275 6.275C14.4583 6.45833 14.55 6.69167 14.55 6.975C14.55 7.25833 14.4583 7.49167 14.275 7.675L10.375 11.575Z" fill="#A3A3A3"/>
</g>
</g>
</svg>
