<svg width="24" height="24" viewBox="0 0 24 24" fill="none" xmlns="http://www.w3.org/2000/svg">
<g id="last_page">
<mask id="mask0_332_8582" style="mask-type:alpha" maskUnits="userSpaceOnUse" x="0" y="0" width="24" height="24">
<rect id="Bounding box" width="24" height="24" fill="#D9D9D9"/>
</mask>
<g mask="url(#mask0_332_8582)">
<path id="last_page_2" d="M10.2004 12L6.30039 8.1C6.11706 7.91667 6.02539 7.68333 6.02539 7.4C6.02539 7.11667 6.11706 6.88333 6.30039 6.7C6.48372 6.51667 6.71706 6.425 7.00039 6.425C7.28372 6.425 7.51706 6.51667 7.70039 6.7L12.3004 11.3C12.4004 11.4 12.4712 11.5083 12.5129 11.625C12.5546 11.7417 12.5754 11.8667 12.5754 12C12.5754 12.1333 12.5546 12.2583 12.5129 12.375C12.4712 12.4917 12.4004 12.6 12.3004 12.7L7.70039 17.3C7.51706 17.4833 7.28372 17.575 7.00039 17.575C6.71706 17.575 6.48372 17.4833 6.30039 17.3C6.11706 17.1167 6.02539 16.8833 6.02539 16.6C6.02539 16.3167 6.11706 16.0833 6.30039 15.9L10.2004 12ZM17.0004 6C17.2837 6 17.5212 6.09583 17.7129 6.2875C17.9046 6.47917 18.0004 6.71667 18.0004 7V17C18.0004 17.2833 17.9046 17.5208 17.7129 17.7125C17.5212 17.9042 17.2837 18 17.0004 18C16.7171 18 16.4796 17.9042 16.2879 17.7125C16.0962 17.5208 16.0004 17.2833 16.0004 17V7C16.0004 6.71667 16.0962 6.47917 16.2879 6.2875C16.4796 6.09583 16.7171 6 17.0004 6Z" fill="#A3A3A3"/>
</g>
</g>
</svg>
