<svg width="16" height="16" viewBox="0 0 16 16" fill="none" xmlns="http://www.w3.org/2000/svg">
<g id="055.location">
<path id="Vector" d="M8.00659 11.8262C11.092 11.8262 13.5933 9.32493 13.5933 6.2395C13.5933 3.15407 11.092 0.652832 8.00659 0.652832C4.92116 0.652832 2.41992 3.15407 2.41992 6.2395C2.41992 9.32493 4.92116 11.8262 8.00659 11.8262Z" fill="#D6D3D1"/>
<path id="Vector_2" d="M13.5667 6.6665C13.3846 8.44677 12.7858 10.1591 11.8187 11.6648C10.8515 13.1705 9.54331 14.4273 8 15.3332V6.6665H13.5667Z" fill="#D6D3D1"/>
<path id="Vector_3" d="M2.44043 6.6665C2.62175 8.44616 3.21957 10.1581 4.18551 11.6638C5.15145 13.1694 6.45836 14.4265 8.00043 15.3332V6.6665H2.44043Z" fill="#D6D3D1"/>
<path id="Vector_4" d="M8.00684 8C9.11141 8 10.0068 7.10457 10.0068 6C10.0068 4.89543 9.11141 4 8.00684 4C6.90227 4 6.00684 4.89543 6.00684 6C6.00684 7.10457 6.90227 8 8.00684 8Z" fill="white"/>
</g>
</svg>
