<svg xmlns="http://www.w3.org/2000/svg" width="20" height="20" viewBox="0 0 20 20" fill="none">
  <path d="M15.8333 6.66699H4.16667C3.24619 6.66699 2.5 7.41318 2.5 8.33366V16.667C2.5 17.5875 3.24619 18.3337 4.16667 18.3337H15.8333C16.7538 18.3337 17.5 17.5875 17.5 16.667V8.33366C17.5 7.41318 16.7538 6.66699 15.8333 6.66699Z" fill="#93C5FD"/>
  <path fill-rule="evenodd" clip-rule="evenodd" d="M10.0003 2.70833C9.17153 2.70833 8.37665 3.03758 7.7906 3.62363C7.20456 4.20968 6.87533 5.00452 6.87533 5.83333V6.66667H4.79199V5.83333C4.79199 4.452 5.3407 3.12725 6.31746 2.1505C7.29421 1.17374 8.61899 0.625 10.0003 0.625C11.3817 0.625 12.7064 1.17375 13.6832 2.1505C14.6599 3.12724 15.2087 4.45199 15.2087 5.83333V6.66667H13.1253V5.83333C13.1253 5.00454 12.7961 4.20969 12.21 3.62363C11.624 3.03758 10.8291 2.70833 10.0003 2.70833Z" fill="#737A83"/>
  <path d="M10.208 10.833H9.79134C9.3311 10.833 8.95801 11.2061 8.95801 11.6663V13.333C8.95801 13.7932 9.3311 14.1663 9.79134 14.1663H10.208C10.6682 14.1663 11.0413 13.7932 11.0413 13.333V11.6663C11.0413 11.2061 10.6682 10.833 10.208 10.833Z" fill="#737A83"/>
</svg>