<svg width="32" height="33" viewBox="0 0 32 33" fill="none" xmlns="http://www.w3.org/2000/svg">
<g id="082.pencil">
<path id="Vector" d="M20.5867 7.36084L7.38672 20.5608L12.1067 25.2675L25.3067 12.0675L20.5867 7.36084Z" fill="#FFC738"/>
<path id="Vector_2" d="M6.33312 21.6144L5.45312 24.2677L8.37313 27.1877L11.0531 26.321L12.1065 25.2677L7.38646 20.561L6.33312 21.6144Z" fill="#F0F0F0"/>
<path id="Vector_3" d="M4 28.6004L8.37333 27.1871L5.45333 24.2671L4 28.6004Z" fill="#707070"/>
<path id="Vector_4" d="M27.1879 6.41435L26.2412 5.48104C25.7416 4.98437 25.0657 4.70557 24.3612 4.70557C23.6568 4.70557 22.9808 4.98437 22.4812 5.48104L20.5879 7.361L25.3079 12.081L27.1879 10.1877C27.4358 9.94004 27.6326 9.64591 27.7668 9.32218C27.901 8.99846 27.97 8.65147 27.97 8.30103C27.97 7.95058 27.901 7.60355 27.7668 7.27983C27.6326 6.9561 27.4358 6.66201 27.1879 6.41435Z" fill="#F4868F"/>
</g>
</svg>
