<svg width="40" height="40" viewBox="0 0 40 40" fill="none" xmlns="http://www.w3.org/2000/svg">
<g id="052.plane">
<path id="Vector" d="M3.33301 28.3332H6.66634L9.99967 23.3332V16.6665L6.66634 11.6665H3.33301L4.99967 19.9998L3.33301 28.3332Z" fill="#5096FF"/>
<path id="Vector_2" d="M11.667 36.6668H18.3337L26.667 23.3335H16.667L11.667 36.6668Z" fill="#CBDFFF"/>
<path id="Vector_3" d="M35.0003 16.6831H6.66699V23.3498H35.0003C35.8844 23.3498 36.7322 22.9986 37.3573 22.3735C37.9825 21.7483 38.3337 20.9005 38.3337 20.0164C38.3337 19.1324 37.9825 18.2845 37.3573 17.6594C36.7322 17.0343 35.8844 16.6831 35.0003 16.6831Z" fill="#5096FF"/>
<path id="Vector_4" d="M18.3337 3.3335H11.667L16.667 16.6668H26.667L18.3337 3.3335Z" fill="#CBDFFF"/>
</g>
</svg>
