<svg xmlns="http://www.w3.org/2000/svg" width="24" height="24" viewBox="0 0 24 24" fill="none">
  <path d="M12 10C14.2091 10 16 8.20914 16 6C16 3.79086 14.2091 2 12 2C9.79086 2 8 3.79086 8 6C8 8.20914 9.79086 10 12 10Z" fill="#D6D3D1"/>
  <path d="M7.5 12H16.5C17.4283 12 18.3185 12.3863 18.9749 13.0739C19.6313 13.7616 20 14.6942 20 15.6667V20.1667C20 20.6529 19.8156 21.1192 19.4874 21.463C19.1592 21.8068 18.7141 22 18.25 22H5.75C5.28587 22 4.84072 21.8068 4.51254 21.463C4.18435 21.1192 4 20.6529 4 20.1667V15.6667C4 14.6942 4.36875 13.7616 5.02512 13.0739C5.6815 12.3863 6.57174 12 7.5 12Z" fill="#D6D3D1"/>
</svg>