<svg xmlns="http://www.w3.org/2000/svg" width="80" height="80" viewBox="0 0 80 80" fill="none">
  <g filter="url(#filter0_d_499_9418)">
    <circle cx="40" cy="40" r="32" fill="white"/>
  </g>
  <path fill-rule="evenodd" clip-rule="evenodd" d="M59.3254 22.2896C58.7397 21.4309 57.7535 20.8672 56.6356 20.8672C54.8388 20.8672 53.3821 22.3238 53.3821 24.1207C53.3821 24.1722 53.3833 24.2235 53.3857 24.2744C53.215 24.2902 53.0441 24.3072 52.8726 24.3255C51.578 24.4635 50.6338 25.5852 50.6338 26.8871C50.6338 28.2946 51.7333 29.4605 53.1396 29.5192C56.6039 29.6637 59.2519 29.6499 62.7278 29.508C64.0915 29.4523 65.162 28.3245 65.162 26.9596C65.162 25.7786 64.3585 24.7682 63.2477 24.4886C63.1485 23.0918 61.984 21.9895 60.562 21.9895C60.1162 21.9895 59.6957 22.0978 59.3254 22.2896Z" fill="#BAE6FD"/>
  <path fill-rule="evenodd" clip-rule="evenodd" d="M24.6916 51.4224C24.1059 50.5637 23.1197 50 22.0019 50C20.205 50 18.7483 51.4567 18.7483 53.2535C18.7483 53.305 18.7495 53.3563 18.7519 53.4072C18.5812 53.423 18.4103 53.44 18.2388 53.4583C16.9442 53.5963 16 54.718 16 56.0199C16 57.4274 17.0995 58.5933 18.5058 58.652C21.9701 58.7965 24.6181 58.7827 28.094 58.6408C29.4577 58.5851 30.5282 57.4573 30.5282 56.0924C30.5282 54.9114 29.7248 53.901 28.6139 53.6214C28.5148 52.2246 27.3502 51.1223 25.9282 51.1223C25.4824 51.1223 25.0619 51.2306 24.6916 51.4224Z" fill="#BAE6FD"/>
  <path d="M46.1087 30.2981C48.1835 30.3621 49.5136 31.0659 50.7705 32.2794C50.9879 32.4892 51.1458 32.7534 51.2281 33.0441C52.2761 36.7479 51.5387 40.8652 50.4987 44.8354C50.3155 45.5348 49.472 45.7955 48.957 45.2881C47.6083 43.9594 46.8739 42.8702 45.2174 42.1874L46.1087 30.2981Z" fill="#A78BFA"/>
  <path d="M33.8923 30.2981C31.8175 30.3621 30.4874 31.0659 29.2304 32.2794C29.0131 32.4892 28.8551 32.7534 28.7729 33.0441C27.7248 36.7479 28.4623 40.8652 29.5023 44.8354C29.6855 45.5348 30.529 45.7955 31.044 45.2881C32.3926 43.9594 33.127 42.8702 34.7836 42.1874L33.8923 30.2981Z" fill="#A78BFA"/>
  <path fill-rule="evenodd" clip-rule="evenodd" d="M44.8811 47.158C47.072 45.0927 48.5044 41.3672 48.5044 35.9075C48.5044 27.0053 42.1507 16.8633 39.9997 16.8633C37.8487 16.8633 31.4961 27.0053 31.4961 35.9075C31.4961 41.3678 32.9279 45.0933 35.1188 47.1586C36.5002 46.558 38.1839 46.2052 40.0003 46.2052C41.8166 46.2052 43.4997 46.5574 44.8811 47.158Z" fill="#EEF2FF"/>
  <path fill-rule="evenodd" clip-rule="evenodd" d="M46.7838 44.5575C46.2491 45.6081 45.6068 46.474 44.8814 47.1579C43.5 46.5573 41.8169 46.2051 40.0006 46.2051C38.1842 46.2051 36.5005 46.5579 35.1191 47.1585C34.3937 46.4746 33.7514 45.6086 33.2168 44.558C34.7695 43.2887 37.2303 42.4688 40.0006 42.4688C42.7705 42.4688 45.2311 43.2885 46.7838 44.5575Z" fill="#C4B5FD"/>
  <circle cx="40.0007" cy="28.9606" r="3.21844" fill="#BFDBFE" stroke="#A3A3A3"/>
  <path fill-rule="evenodd" clip-rule="evenodd" d="M45.0584 23.0409H34.9473C36.8035 19.3959 38.9276 16.8633 40.0025 16.8633C41.0774 16.8633 43.2018 19.3959 45.0584 23.0409Z" fill="#A78BFA"/>
  <path d="M44.3955 53.1149C44.3955 58.3391 41.4894 63.1361 40 63.1361C38.5106 63.1361 35.6045 58.2963 35.6045 53.1149C35.6045 50.4561 37.5724 48.3008 40 48.3008C42.4276 48.3008 44.3955 50.4561 44.3955 53.1149Z" fill="#FB923C"/>
  <path d="M42.4479 52.4365C42.4479 55.3456 40.8297 58.0167 40.0003 58.0167C39.171 58.0167 37.5527 55.3217 37.5527 52.4365C37.5527 50.956 38.6486 49.7559 40.0003 49.7559C41.3521 49.7559 42.4479 50.956 42.4479 52.4365Z" fill="#FDBA74"/>
  <defs>
    <filter id="filter0_d_499_9418" x="0" y="0" width="80" height="80" filterUnits="userSpaceOnUse" color-interpolation-filters="sRGB">
      <feFlood flood-opacity="0" result="BackgroundImageFix"/>
      <feColorMatrix in="SourceAlpha" type="matrix" values="0 0 0 0 0 0 0 0 0 0 0 0 0 0 0 0 0 0 127 0" result="hardAlpha"/>
      <feOffset/>
      <feGaussianBlur stdDeviation="4"/>
      <feComposite in2="hardAlpha" operator="out"/>
      <feColorMatrix type="matrix" values="0 0 0 0 0 0 0 0 0 0 0 0 0 0 0 0 0 0 0.2 0"/>
      <feBlend mode="normal" in2="BackgroundImageFix" result="effect1_dropShadow_499_9418"/>
      <feBlend mode="normal" in="SourceGraphic" in2="effect1_dropShadow_499_9418" result="shape"/>
    </filter>
  </defs>
</svg>