<svg width="32" height="20" viewBox="0 0 32 20" fill="none" xmlns="http://www.w3.org/2000/svg">
<g clip-path="url(#clip0_409_18241)">
<path d="M17.8583 2.4569C17.9235 2.5404 17.9825 2.6271 18.0431 2.71381C16.4564 3.28221 14.7114 4.55549 13.1667 7.1727C10.5243 11.6509 9.83969 17.0009 9.6627 19.4527C8.77157 19.5571 7.92391 19.6839 7.12748 19.8301C5.66192 20.0998 4.13893 19.8076 2.89227 18.9646C2.66251 18.8089 2.45913 18.6467 2.28525 18.4765C0.357052 16.8162 -0.510792 14.0497 0.307372 11.4277C1.20006 8.5632 3.82222 6.77611 6.59497 6.89653C6.54529 5.94277 6.69588 4.95851 7.08246 4.00475C8.28874 1.02787 11.4807 -0.605076 14.5018 0.20899C15.8245 0.565445 16.9299 1.3201 17.7403 2.30918L17.8583 2.4569Z" fill="#A3A3A3"/>
<path d="M28.496 8.82448C27.8021 8.54991 27.0895 8.4343 26.3924 8.45518C26.4654 7.33764 26.2123 6.23938 25.6922 5.29365C24.4937 3.10836 21.9631 2.06308 19.622 2.73585C18.6408 3.01844 17.8133 3.60771 17.0961 4.4555C14.9583 7.08877 14.0749 14.2323 14.6416 19.1279C14.9831 19.1215 15.3278 19.1167 15.6755 19.1167C18.9528 19.1167 21.9895 19.3993 24.4859 19.8794C25.8816 20.1475 27.3301 19.9741 28.6016 19.3254C28.6094 19.3222 28.6171 19.3174 28.6249 19.3142C29.0611 19.1279 29.4725 18.8855 29.8482 18.5901C29.8933 18.5595 29.9398 18.5306 29.9833 18.4985L29.974 18.4873C30.7549 17.837 31.3728 16.9555 31.719 15.8974C32.6458 13.0522 31.2082 9.89545 28.496 8.82448Z" fill="#A3A3A3"/>
</g>
<defs>
<clipPath id="clip0_409_18241">
<rect width="32" height="20" fill="white"/>
</clipPath>
</defs>
</svg>
