<svg width="16" height="16" viewBox="0 0 16 16" fill="none" xmlns="http://www.w3.org/2000/svg">
<g id="036.tag">
<path id="Vector" d="M8.61393 1.3335H14.0006C14.1774 1.3335 14.347 1.40372 14.472 1.52875C14.597 1.65377 14.6673 1.82335 14.6673 2.00016V7.38017C14.6674 7.55611 14.6327 7.73033 14.5652 7.8928C14.4977 8.05528 14.3987 8.20278 14.2739 8.32682L7.60726 14.9935C7.48343 15.1175 7.33638 15.2158 7.17452 15.2829C7.01266 15.35 6.83916 15.3845 6.66394 15.3845C6.48872 15.3845 6.31521 15.35 6.15334 15.2829C5.99148 15.2158 5.84443 15.1175 5.7206 14.9935L1.00726 10.2802C0.883295 10.1563 0.784954 10.0093 0.717855 9.84741C0.650756 9.68555 0.616211 9.51205 0.616211 9.33683C0.616211 9.16161 0.650756 8.9881 0.717855 8.82623C0.784954 8.66437 0.883295 8.51732 1.00726 8.39349L7.67393 1.72683C7.92283 1.47644 8.26088 1.33498 8.61393 1.3335Z" fill="#D6D3D1"/>
<path id="Vector_2" d="M10.8929 6.4401C11.6293 6.4401 12.2262 5.84315 12.2262 5.10677C12.2262 4.37039 11.6293 3.77344 10.8929 3.77344C10.1565 3.77344 9.55957 4.37039 9.55957 5.10677C9.55957 5.84315 10.1565 6.4401 10.8929 6.4401Z" fill="white"/>
</g>
</svg>
