<svg xmlns="http://www.w3.org/2000/svg" width="18" height="21" viewBox="0 0 18 21" fill="none">
  <path d="M1.5 4H16.5V19C16.5 20.1 15.6 21 14.5 21H3.5C2.4 21 1.5 20.1 1.5 19V4Z" fill="#737A83"/>
  <path d="M5.5 7.5L5.5 16.5C5.5 16.7761 5.72386 17 6 17H7C7.27614 17 7.5 16.7761 7.5 16.5V7.5C7.5 7.22386 7.27614 7 7 7H6C5.72386 7 5.5 7.22386 5.5 7.5Z" fill="white"/>
  <path d="M10.5 7.5V16.5C10.5 16.7761 10.7239 17 11 17H12C12.2761 17 12.5 16.7761 12.5 16.5V7.5C12.5 7.22386 12.2761 7 12 7H11C10.7239 7 10.5 7.22386 10.5 7.5Z" fill="white"/>
  <path d="M17.5 2H0.5V4H17.5V2Z" fill="#C7CED5"/>
  <path d="M5 2L5.45 1.11C5.79 0.43 6.48 0 7.24 0H10.77C11.53 0 12.22 0.43 12.56 1.11L13.01 2H5.01H5Z" fill="#C7CED5"/>
</svg>