<svg width="110" height="72" viewBox="0 0 110 72" fill="none" xmlns="http://www.w3.org/2000/svg">
<path d="M10.8882 33.3335C10.8882 33.3335 10.8557 33.3335 10.834 33.3335C7.24815 33.3335 4.33398 36.2477 4.33398 39.8335C4.33398 42.6935 6.17565 45.1093 8.74315 45.9868C8.69982 46.2793 8.66732 46.5718 8.66732 46.8752C8.66732 50.1685 11.3323 52.8335 14.6257 52.8335C17.919 52.8335 22.209 49.5835 20.584 43.6252C23.4839 43.0656 24 42.5005 26.5 41.0005C24.0933 40.6491 22.6423 39.3505 20.584 37.6668C22.209 30.6252 18.3957 29.0002 15.709 29.0002C13.2065 29.0002 11.159 30.896 10.8882 33.3335Z" fill="#BAE6FD"/>
<path fill-rule="evenodd" clip-rule="evenodd" d="M70.25 12C70.25 9.92893 71.9289 8.25 74 8.25H85.4727L104.447 52.5228C105.263 54.4264 104.381 56.631 102.477 57.4468C100.574 58.2626 98.369 57.3808 97.5532 55.4772L80.5273 15.75H74C71.9289 15.75 70.25 14.0711 70.25 12Z" fill="#F472B6"/>
<path d="M80 51L89 33H95L102.71 51H80Z" fill="#F472B6"/>
<path d="M47 54.0293H74L68 39.0293H56C53.6131 39.0293 51.3239 39.9775 49.636 41.6653C47.9482 43.3532 47 45.6423 47 48.0293V54.0293Z" fill="#F472B6"/>
<path d="M98 51H56V60H98V51Z" fill="#F472B6"/>
<path d="M53 66C57.9706 66 62 61.9706 62 57C62 52.0294 57.9706 48 53 48C48.0294 48 44 52.0294 44 57C44 61.9706 48.0294 66 53 66Z" fill="#7DD3FC"/>
<path d="M98 66C102.971 66 107 61.9706 107 57C107 52.0294 102.971 48 98 48C93.0294 48 89 52.0294 89 57C89 61.9706 93.0294 66 98 66Z" fill="#7DD3FC"/>
<path d="M56 21H44C42.3431 21 41 22.3431 41 24V36C41 37.6569 42.3431 39 44 39H56C57.6569 39 59 37.6569 59 36V24C59 22.3431 57.6569 21 56 21Z" fill="white"/>
<path d="M68.3633 33H52.6133C50.9564 33 49.6133 34.3431 49.6133 36C49.6133 37.6569 50.9564 39 52.6133 39H68.3633C70.0201 39 71.3633 37.6569 71.3633 36C71.3633 34.3431 70.0201 33 68.3633 33Z" fill="white"/>
</svg>
